<mxfile host="app.diagrams.net" modified="2023-06-20T11:50:16.778Z" agent="Mozilla/5.0 (Windows NT 10.0; Win64; x64) AppleWebKit/537.36 (KHTML, like Gecko) Chrome/114.0.0.0 Safari/537.36" etag="JuEgbjcT-uvuVorRhorw" version="21.5.0" type="device">
  <diagram name="Page-1" id="Lf1y3SAfESCzGv5YG4UM">
    <mxGraphModel dx="1290" dy="541" grid="1" gridSize="10" guides="1" tooltips="1" connect="1" arrows="1" fold="1" page="1" pageScale="1" pageWidth="827" pageHeight="1169" math="0" shadow="0">
      <root>
        <mxCell id="0" />
        <mxCell id="1" parent="0" />
        <mxCell id="KLATj4njOD9Xj2DlqXo5-1" value="ME" style="rounded=0;whiteSpace=wrap;html=1;" parent="1" vertex="1">
          <mxGeometry x="40" y="80" width="80" height="30" as="geometry" />
        </mxCell>
        <mxCell id="KLATj4njOD9Xj2DlqXo5-2" value="Login Id" style="ellipse;whiteSpace=wrap;html=1;" parent="1" vertex="1">
          <mxGeometry x="100" y="10" width="80" height="40" as="geometry" />
        </mxCell>
        <mxCell id="KLATj4njOD9Xj2DlqXo5-3" value="Name" style="ellipse;whiteSpace=wrap;html=1;" parent="1" vertex="1">
          <mxGeometry x="10" y="10" width="80" height="40" as="geometry" />
        </mxCell>
        <mxCell id="KLATj4njOD9Xj2DlqXo5-4" value="Password" style="ellipse;whiteSpace=wrap;html=1;" parent="1" vertex="1">
          <mxGeometry x="10" y="140" width="80" height="40" as="geometry" />
        </mxCell>
        <mxCell id="KLATj4njOD9Xj2DlqXo5-5" value="" style="endArrow=classic;html=1;rounded=0;entryX=0.345;entryY=1.015;entryDx=0;entryDy=0;exitX=0.865;exitY=-0.073;exitDx=0;exitDy=0;exitPerimeter=0;entryPerimeter=0;" parent="1" target="KLATj4njOD9Xj2DlqXo5-2" edge="1">
          <mxGeometry width="50" height="50" relative="1" as="geometry">
            <mxPoint x="109.20000000000005" y="78.80999999999995" as="sourcePoint" />
            <mxPoint x="109.99572875253787" y="45.142135623731065" as="targetPoint" />
          </mxGeometry>
        </mxCell>
        <mxCell id="KLATj4njOD9Xj2DlqXo5-6" value="" style="endArrow=classic;html=1;rounded=0;entryX=0;entryY=1;entryDx=0;entryDy=0;exitX=0;exitY=0;exitDx=0;exitDy=0;" parent="1" source="KLATj4njOD9Xj2DlqXo5-1" edge="1">
          <mxGeometry width="50" height="50" relative="1" as="geometry">
            <mxPoint x="29.799999999999997" y="80.19" as="sourcePoint" />
            <mxPoint x="30.79572875253787" y="46.33213562373106" as="targetPoint" />
          </mxGeometry>
        </mxCell>
        <mxCell id="KLATj4njOD9Xj2DlqXo5-7" value="" style="endArrow=classic;html=1;rounded=0;entryX=0.5;entryY=0;entryDx=0;entryDy=0;exitX=0.25;exitY=1;exitDx=0;exitDy=0;" parent="1" source="KLATj4njOD9Xj2DlqXo5-1" target="KLATj4njOD9Xj2DlqXo5-4" edge="1">
          <mxGeometry width="50" height="50" relative="1" as="geometry">
            <mxPoint x="54.6" y="163.67000000000002" as="sourcePoint" />
            <mxPoint x="45.39572875253787" y="130.00213562373108" as="targetPoint" />
          </mxGeometry>
        </mxCell>
        <mxCell id="KLATj4njOD9Xj2DlqXo5-8" value="" style="endArrow=classic;html=1;rounded=0;exitX=1;exitY=0.5;exitDx=0;exitDy=0;" parent="1" source="KLATj4njOD9Xj2DlqXo5-1" edge="1">
          <mxGeometry width="50" height="50" relative="1" as="geometry">
            <mxPoint x="390" y="310" as="sourcePoint" />
            <mxPoint x="260" y="95" as="targetPoint" />
          </mxGeometry>
        </mxCell>
        <mxCell id="KLATj4njOD9Xj2DlqXo5-9" value="Calls" style="rhombus;whiteSpace=wrap;html=1;" parent="1" vertex="1">
          <mxGeometry x="260" y="279" width="110" height="80" as="geometry" />
        </mxCell>
        <mxCell id="KLATj4njOD9Xj2DlqXo5-10" value="Logins" style="text;html=1;strokeColor=none;fillColor=none;align=center;verticalAlign=middle;whiteSpace=wrap;rounded=0;" parent="1" vertex="1">
          <mxGeometry x="170" y="70" width="60" height="30" as="geometry" />
        </mxCell>
        <mxCell id="KLATj4njOD9Xj2DlqXo5-11" value="" style="endArrow=classic;html=1;rounded=0;exitX=1;exitY=0.5;exitDx=0;exitDy=0;" parent="1" edge="1" source="KLATj4njOD9Xj2DlqXo5-27">
          <mxGeometry width="50" height="50" relative="1" as="geometry">
            <mxPoint x="382" y="94.58" as="sourcePoint" />
            <mxPoint x="530" y="95.08" as="targetPoint" />
          </mxGeometry>
        </mxCell>
        <mxCell id="KLATj4njOD9Xj2DlqXo5-12" value="Inquiry Portal" style="rounded=0;whiteSpace=wrap;html=1;" parent="1" vertex="1">
          <mxGeometry x="530" y="72.5" width="100" height="45" as="geometry" />
        </mxCell>
        <mxCell id="KLATj4njOD9Xj2DlqXo5-13" value="" style="endArrow=classic;html=1;rounded=0;exitX=0.865;exitY=-0.073;exitDx=0;exitDy=0;exitPerimeter=0;" parent="1" edge="1">
          <mxGeometry width="50" height="50" relative="1" as="geometry">
            <mxPoint x="560" y="72.49999999999994" as="sourcePoint" />
            <mxPoint x="540" y="45" as="targetPoint" />
          </mxGeometry>
        </mxCell>
        <mxCell id="KLATj4njOD9Xj2DlqXo5-14" value="Id" style="ellipse;whiteSpace=wrap;html=1;" parent="1" vertex="1">
          <mxGeometry x="479" y="9" width="80" height="40" as="geometry" />
        </mxCell>
        <mxCell id="KLATj4njOD9Xj2DlqXo5-15" value="" style="endArrow=classic;html=1;rounded=0;exitX=0.872;exitY=0.029;exitDx=0;exitDy=0;exitPerimeter=0;" parent="1" source="KLATj4njOD9Xj2DlqXo5-31" edge="1">
          <mxGeometry width="50" height="50" relative="1" as="geometry">
            <mxPoint x="620" y="290" as="sourcePoint" />
            <mxPoint x="630" y="270" as="targetPoint" />
          </mxGeometry>
        </mxCell>
        <mxCell id="KLATj4njOD9Xj2DlqXo5-17" value="Customer Id" style="ellipse;whiteSpace=wrap;html=1;" parent="1" vertex="1">
          <mxGeometry x="630" y="6.5" width="80" height="40" as="geometry" />
        </mxCell>
        <mxCell id="KLATj4njOD9Xj2DlqXo5-18" value="" style="endArrow=classic;html=1;rounded=0;exitX=0.25;exitY=1;exitDx=0;exitDy=0;" parent="1" edge="1">
          <mxGeometry width="50" height="50" relative="1" as="geometry">
            <mxPoint x="630" y="117.5" as="sourcePoint" />
            <mxPoint x="640" y="160" as="targetPoint" />
          </mxGeometry>
        </mxCell>
        <mxCell id="KLATj4njOD9Xj2DlqXo5-20" value="Inquiry Type" style="ellipse;whiteSpace=wrap;html=1;" parent="1" vertex="1">
          <mxGeometry x="610" y="157.5" width="80" height="40" as="geometry" />
        </mxCell>
        <mxCell id="KLATj4njOD9Xj2DlqXo5-21" value="Cust_Info" style="ellipse;whiteSpace=wrap;html=1;" parent="1" vertex="1">
          <mxGeometry x="520" y="157.5" width="80" height="40" as="geometry" />
        </mxCell>
        <mxCell id="KLATj4njOD9Xj2DlqXo5-23" value="" style="endArrow=classic;html=1;rounded=0;entryX=0.5;entryY=0;entryDx=0;entryDy=0;" parent="1" target="KLATj4njOD9Xj2DlqXo5-21" edge="1">
          <mxGeometry width="50" height="50" relative="1" as="geometry">
            <mxPoint x="560" y="120" as="sourcePoint" />
            <mxPoint x="570" y="162.5" as="targetPoint" />
          </mxGeometry>
        </mxCell>
        <mxCell id="KLATj4njOD9Xj2DlqXo5-25" value="" style="endArrow=none;html=1;rounded=0;entryX=0.75;entryY=1;entryDx=0;entryDy=0;" parent="1" target="KLATj4njOD9Xj2DlqXo5-1" edge="1">
          <mxGeometry width="50" height="50" relative="1" as="geometry">
            <mxPoint x="100" y="640" as="sourcePoint" />
            <mxPoint x="440" y="260" as="targetPoint" />
          </mxGeometry>
        </mxCell>
        <mxCell id="KLATj4njOD9Xj2DlqXo5-26" value="" style="endArrow=classic;html=1;rounded=0;exitX=1;exitY=0.5;exitDx=0;exitDy=0;" parent="1" edge="1">
          <mxGeometry width="50" height="50" relative="1" as="geometry">
            <mxPoint x="100" y="319" as="sourcePoint" />
            <mxPoint x="260" y="319" as="targetPoint" />
          </mxGeometry>
        </mxCell>
        <mxCell id="KLATj4njOD9Xj2DlqXo5-27" value="Views&lt;br&gt;Inquiries" style="rhombus;whiteSpace=wrap;html=1;" parent="1" vertex="1">
          <mxGeometry x="261" y="55" width="110" height="80" as="geometry" />
        </mxCell>
        <mxCell id="KLATj4njOD9Xj2DlqXo5-28" value="" style="endArrow=classic;html=1;rounded=0;exitX=1;exitY=0.5;exitDx=0;exitDy=0;" parent="1" edge="1">
          <mxGeometry width="50" height="50" relative="1" as="geometry">
            <mxPoint x="370" y="318.5" as="sourcePoint" />
            <mxPoint x="530" y="318.5" as="targetPoint" />
          </mxGeometry>
        </mxCell>
        <mxCell id="KLATj4njOD9Xj2DlqXo5-30" value="Client" style="text;html=1;strokeColor=none;fillColor=none;align=center;verticalAlign=middle;whiteSpace=wrap;rounded=0;" parent="1" vertex="1">
          <mxGeometry x="419" y="518" width="60" height="30" as="geometry" />
        </mxCell>
        <mxCell id="KLATj4njOD9Xj2DlqXo5-31" value="Requirements" style="rounded=0;whiteSpace=wrap;html=1;" parent="1" vertex="1">
          <mxGeometry x="530" y="296.5" width="100" height="45" as="geometry" />
        </mxCell>
        <mxCell id="KLATj4njOD9Xj2DlqXo5-32" value="Inquiry Type" style="ellipse;whiteSpace=wrap;html=1;" parent="1" vertex="1">
          <mxGeometry x="601" y="231" width="80" height="40" as="geometry" />
        </mxCell>
        <mxCell id="KLATj4njOD9Xj2DlqXo5-35" value="" style="endArrow=classic;html=1;rounded=0;entryX=0.345;entryY=1.015;entryDx=0;entryDy=0;exitX=0.865;exitY=-0.073;exitDx=0;exitDy=0;exitPerimeter=0;entryPerimeter=0;" parent="1" edge="1">
          <mxGeometry width="50" height="50" relative="1" as="geometry">
            <mxPoint x="630" y="72.49999999999994" as="sourcePoint" />
            <mxPoint x="648.8" y="44.69" as="targetPoint" />
          </mxGeometry>
        </mxCell>
        <mxCell id="KLATj4njOD9Xj2DlqXo5-37" value="Inq Id" style="ellipse;whiteSpace=wrap;html=1;" parent="1" vertex="1">
          <mxGeometry x="513" y="220" width="80" height="40" as="geometry" />
        </mxCell>
        <mxCell id="KLATj4njOD9Xj2DlqXo5-39" value="" style="endArrow=classic;html=1;rounded=0;" parent="1" edge="1">
          <mxGeometry width="50" height="50" relative="1" as="geometry">
            <mxPoint x="562.2" y="297" as="sourcePoint" />
            <mxPoint x="560" y="260" as="targetPoint" />
          </mxGeometry>
        </mxCell>
        <mxCell id="KLATj4njOD9Xj2DlqXo5-40" value="Inq Info" style="ellipse;whiteSpace=wrap;html=1;rotation=-5;" parent="1" vertex="1">
          <mxGeometry x="409" y="231" width="80" height="40" as="geometry" />
        </mxCell>
        <mxCell id="KLATj4njOD9Xj2DlqXo5-41" value="" style="endArrow=classic;html=1;rounded=0;entryX=1;entryY=1;entryDx=0;entryDy=0;exitX=0;exitY=0;exitDx=0;exitDy=0;" parent="1" source="KLATj4njOD9Xj2DlqXo5-31" target="KLATj4njOD9Xj2DlqXo5-40" edge="1">
          <mxGeometry width="50" height="50" relative="1" as="geometry">
            <mxPoint x="520" y="290" as="sourcePoint" />
            <mxPoint x="499.99999999999994" y="260" as="targetPoint" />
          </mxGeometry>
        </mxCell>
        <mxCell id="KLATj4njOD9Xj2DlqXo5-42" value="" style="endArrow=classic;html=1;rounded=0;exitX=1;exitY=0.5;exitDx=0;exitDy=0;" parent="1" edge="1">
          <mxGeometry width="50" height="50" relative="1" as="geometry">
            <mxPoint x="100" y="640" as="sourcePoint" />
            <mxPoint x="260" y="640" as="targetPoint" />
          </mxGeometry>
        </mxCell>
        <mxCell id="KLATj4njOD9Xj2DlqXo5-43" value="" style="endArrow=classic;html=1;rounded=0;exitX=1;exitY=0.5;exitDx=0;exitDy=0;" parent="1" edge="1">
          <mxGeometry width="50" height="50" relative="1" as="geometry">
            <mxPoint x="370" y="477.63" as="sourcePoint" />
            <mxPoint x="530" y="477.63" as="targetPoint" />
          </mxGeometry>
        </mxCell>
        <mxCell id="KLATj4njOD9Xj2DlqXo5-44" value="Views" style="rhombus;whiteSpace=wrap;html=1;" parent="1" vertex="1">
          <mxGeometry x="537.5" y="720" width="85" height="50" as="geometry" />
        </mxCell>
        <mxCell id="KLATj4njOD9Xj2DlqXo5-45" value="Functionalities" style="rounded=0;whiteSpace=wrap;html=1;" parent="1" vertex="1">
          <mxGeometry x="530" y="452.5" width="100" height="45" as="geometry" />
        </mxCell>
        <mxCell id="KLATj4njOD9Xj2DlqXo5-46" value="" style="endArrow=classic;html=1;rounded=0;" parent="1" edge="1">
          <mxGeometry width="50" height="50" relative="1" as="geometry">
            <mxPoint x="530" y="451" as="sourcePoint" />
            <mxPoint x="520" y="421" as="targetPoint" />
          </mxGeometry>
        </mxCell>
        <mxCell id="KLATj4njOD9Xj2DlqXo5-47" value="package id" style="ellipse;whiteSpace=wrap;html=1;rotation=-5;" parent="1" vertex="1">
          <mxGeometry x="450" y="390" width="80" height="40" as="geometry" />
        </mxCell>
        <mxCell id="KLATj4njOD9Xj2DlqXo5-50" value="" style="endArrow=classic;html=1;rounded=0;" parent="1" edge="1">
          <mxGeometry width="50" height="50" relative="1" as="geometry">
            <mxPoint x="581.1" y="451.5" as="sourcePoint" />
            <mxPoint x="581" y="424" as="targetPoint" />
          </mxGeometry>
        </mxCell>
        <mxCell id="KLATj4njOD9Xj2DlqXo5-51" value="package info" style="ellipse;whiteSpace=wrap;html=1;" parent="1" vertex="1">
          <mxGeometry x="628" y="393" width="76" height="38" as="geometry" />
        </mxCell>
        <mxCell id="KLATj4njOD9Xj2DlqXo5-52" value="" style="endArrow=classic;html=1;rounded=0;exitX=0.872;exitY=0.007;exitDx=0;exitDy=0;exitPerimeter=0;" parent="1" edge="1" source="KLATj4njOD9Xj2DlqXo5-59">
          <mxGeometry width="50" height="50" relative="1" as="geometry">
            <mxPoint x="620" y="610" as="sourcePoint" />
            <mxPoint x="630.9" y="578" as="targetPoint" />
          </mxGeometry>
        </mxCell>
        <mxCell id="KLATj4njOD9Xj2DlqXo5-55" value="" style="endArrow=classic;html=1;rounded=0;exitX=1;exitY=0.5;exitDx=0;exitDy=0;" parent="1" edge="1">
          <mxGeometry width="50" height="50" relative="1" as="geometry">
            <mxPoint x="100" y="477.58000000000004" as="sourcePoint" />
            <mxPoint x="260" y="477.58000000000004" as="targetPoint" />
          </mxGeometry>
        </mxCell>
        <mxCell id="KLATj4njOD9Xj2DlqXo5-56" value="Adds" style="rhombus;whiteSpace=wrap;html=1;" parent="1" vertex="1">
          <mxGeometry x="260" y="438" width="110" height="80" as="geometry" />
        </mxCell>
        <mxCell id="KLATj4njOD9Xj2DlqXo5-57" value="" style="endArrow=classic;html=1;rounded=0;exitX=1;exitY=0.5;exitDx=0;exitDy=0;" parent="1" edge="1">
          <mxGeometry width="50" height="50" relative="1" as="geometry">
            <mxPoint x="370" y="639.5799999999999" as="sourcePoint" />
            <mxPoint x="530" y="639.5799999999999" as="targetPoint" />
          </mxGeometry>
        </mxCell>
        <mxCell id="KLATj4njOD9Xj2DlqXo5-58" value="Raw Quotation" style="text;html=1;strokeColor=none;fillColor=none;align=center;verticalAlign=middle;whiteSpace=wrap;rounded=0;" parent="1" vertex="1">
          <mxGeometry x="390" y="610" width="90" height="30" as="geometry" />
        </mxCell>
        <mxCell id="KLATj4njOD9Xj2DlqXo5-59" value="Client" style="rounded=0;whiteSpace=wrap;html=1;" parent="1" vertex="1">
          <mxGeometry x="530" y="617.5" width="100" height="45" as="geometry" />
        </mxCell>
        <mxCell id="KLATj4njOD9Xj2DlqXo5-65" value="" style="endArrow=classic;html=1;rounded=0;exitX=0.5;exitY=1;exitDx=0;exitDy=0;" parent="1" source="KLATj4njOD9Xj2DlqXo5-59" edge="1">
          <mxGeometry width="50" height="50" relative="1" as="geometry">
            <mxPoint x="520" y="670" as="sourcePoint" />
            <mxPoint x="580" y="720" as="targetPoint" />
          </mxGeometry>
        </mxCell>
        <mxCell id="KLATj4njOD9Xj2DlqXo5-66" value="Creates/&lt;br style=&quot;border-color: var(--border-color);&quot;&gt;Sends" style="rhombus;whiteSpace=wrap;html=1;" parent="1" vertex="1">
          <mxGeometry x="261" y="600" width="110" height="80" as="geometry" />
        </mxCell>
        <mxCell id="dAv51BVtBpRJ1IaC2P38-1" value="" style="endArrow=classic;html=1;rounded=0;" edge="1" parent="1">
          <mxGeometry width="50" height="50" relative="1" as="geometry">
            <mxPoint x="579.5" y="770" as="sourcePoint" />
            <mxPoint x="580" y="820" as="targetPoint" />
          </mxGeometry>
        </mxCell>
        <mxCell id="dAv51BVtBpRJ1IaC2P38-2" value="package name" style="ellipse;whiteSpace=wrap;html=1;" vertex="1" parent="1">
          <mxGeometry x="545" y="386" width="76" height="38" as="geometry" />
        </mxCell>
        <mxCell id="dAv51BVtBpRJ1IaC2P38-3" value="Quotation" style="rounded=0;whiteSpace=wrap;html=1;" vertex="1" parent="1">
          <mxGeometry x="530.5" y="820" width="100" height="45" as="geometry" />
        </mxCell>
        <mxCell id="dAv51BVtBpRJ1IaC2P38-4" value="client id" style="ellipse;whiteSpace=wrap;html=1;" vertex="1" parent="1">
          <mxGeometry x="605" y="540" width="76" height="38" as="geometry" />
        </mxCell>
        <mxCell id="dAv51BVtBpRJ1IaC2P38-5" value="client name" style="ellipse;whiteSpace=wrap;html=1;" vertex="1" parent="1">
          <mxGeometry x="513.5" y="540" width="76" height="38" as="geometry" />
        </mxCell>
        <mxCell id="dAv51BVtBpRJ1IaC2P38-6" value="" style="endArrow=classic;html=1;rounded=0;exitX=0.352;exitY=-0.029;exitDx=0;exitDy=0;exitPerimeter=0;" edge="1" parent="1" source="KLATj4njOD9Xj2DlqXo5-59">
          <mxGeometry width="50" height="50" relative="1" as="geometry">
            <mxPoint x="570" y="610" as="sourcePoint" />
            <mxPoint x="555" y="578" as="targetPoint" />
          </mxGeometry>
        </mxCell>
        <mxCell id="dAv51BVtBpRJ1IaC2P38-7" value="" style="endArrow=classic;html=1;rounded=0;exitX=0.872;exitY=0.007;exitDx=0;exitDy=0;exitPerimeter=0;" edge="1" parent="1">
          <mxGeometry width="50" height="50" relative="1" as="geometry">
            <mxPoint x="629.8" y="820.1800000000001" as="sourcePoint" />
            <mxPoint x="643.6999999999999" y="780.1800000000001" as="targetPoint" />
          </mxGeometry>
        </mxCell>
        <mxCell id="dAv51BVtBpRJ1IaC2P38-8" value="quote id" style="ellipse;whiteSpace=wrap;html=1;rotation=-15;" vertex="1" parent="1">
          <mxGeometry x="461.5" y="750" width="76" height="38" as="geometry" />
        </mxCell>
        <mxCell id="dAv51BVtBpRJ1IaC2P38-9" value="" style="endArrow=classic;html=1;rounded=0;exitX=0.352;exitY=-0.029;exitDx=0;exitDy=0;exitPerimeter=0;entryX=0.653;entryY=0.996;entryDx=0;entryDy=0;entryPerimeter=0;" edge="1" parent="1" target="dAv51BVtBpRJ1IaC2P38-8">
          <mxGeometry width="50" height="50" relative="1" as="geometry">
            <mxPoint x="530.3" y="820" as="sourcePoint" />
            <mxPoint x="520.3" y="782" as="targetPoint" />
          </mxGeometry>
        </mxCell>
        <mxCell id="dAv51BVtBpRJ1IaC2P38-10" value="quote package" style="ellipse;whiteSpace=wrap;html=1;" vertex="1" parent="1">
          <mxGeometry x="628" y="746" width="76" height="38" as="geometry" />
        </mxCell>
        <mxCell id="dAv51BVtBpRJ1IaC2P38-12" value="" style="endArrow=none;html=1;rounded=0;" edge="1" parent="1">
          <mxGeometry width="50" height="50" relative="1" as="geometry">
            <mxPoint x="580" y="890" as="sourcePoint" />
            <mxPoint x="580" y="865" as="targetPoint" />
          </mxGeometry>
        </mxCell>
        <mxCell id="dAv51BVtBpRJ1IaC2P38-13" value="" style="endArrow=none;html=1;rounded=0;" edge="1" parent="1">
          <mxGeometry width="50" height="50" relative="1" as="geometry">
            <mxPoint x="480" y="960" as="sourcePoint" />
            <mxPoint x="681" y="960" as="targetPoint" />
          </mxGeometry>
        </mxCell>
        <mxCell id="dAv51BVtBpRJ1IaC2P38-16" value="" style="endArrow=classic;html=1;rounded=0;" edge="1" parent="1">
          <mxGeometry width="50" height="50" relative="1" as="geometry">
            <mxPoint x="681" y="960" as="sourcePoint" />
            <mxPoint x="681" y="1040" as="targetPoint" />
          </mxGeometry>
        </mxCell>
        <mxCell id="dAv51BVtBpRJ1IaC2P38-18" value="" style="endArrow=classic;html=1;rounded=0;" edge="1" parent="1">
          <mxGeometry width="50" height="50" relative="1" as="geometry">
            <mxPoint x="479" y="959" as="sourcePoint" />
            <mxPoint x="479" y="1039" as="targetPoint" />
          </mxGeometry>
        </mxCell>
        <mxCell id="dAv51BVtBpRJ1IaC2P38-19" value="Approves" style="text;html=1;strokeColor=none;fillColor=none;align=center;verticalAlign=middle;whiteSpace=wrap;rounded=0;" vertex="1" parent="1">
          <mxGeometry x="480" y="933" width="90" height="30" as="geometry" />
        </mxCell>
        <mxCell id="dAv51BVtBpRJ1IaC2P38-20" value="IF client" style="rhombus;whiteSpace=wrap;html=1;" vertex="1" parent="1">
          <mxGeometry x="540.5" y="890" width="80" height="30" as="geometry" />
        </mxCell>
        <mxCell id="dAv51BVtBpRJ1IaC2P38-21" value="" style="endArrow=none;html=1;rounded=0;entryX=0.5;entryY=1;entryDx=0;entryDy=0;" edge="1" parent="1" target="dAv51BVtBpRJ1IaC2P38-20">
          <mxGeometry width="50" height="50" relative="1" as="geometry">
            <mxPoint x="581" y="960" as="sourcePoint" />
            <mxPoint x="400" y="1010" as="targetPoint" />
          </mxGeometry>
        </mxCell>
        <mxCell id="dAv51BVtBpRJ1IaC2P38-22" value="Pending" style="text;html=1;strokeColor=none;fillColor=none;align=center;verticalAlign=middle;whiteSpace=wrap;rounded=0;" vertex="1" parent="1">
          <mxGeometry x="565.5" y="672" width="90" height="30" as="geometry" />
        </mxCell>
        <mxCell id="dAv51BVtBpRJ1IaC2P38-23" value="Rejects" style="text;html=1;strokeColor=none;fillColor=none;align=center;verticalAlign=middle;whiteSpace=wrap;rounded=0;" vertex="1" parent="1">
          <mxGeometry x="589.5" y="933" width="90" height="30" as="geometry" />
        </mxCell>
        <mxCell id="dAv51BVtBpRJ1IaC2P38-24" value="ME" style="rounded=0;whiteSpace=wrap;html=1;" vertex="1" parent="1">
          <mxGeometry x="430.5" y="1040" width="100" height="45" as="geometry" />
        </mxCell>
        <mxCell id="dAv51BVtBpRJ1IaC2P38-25" value="Rejected" style="rounded=0;whiteSpace=wrap;html=1;" vertex="1" parent="1">
          <mxGeometry x="631.5" y="1040" width="100" height="45" as="geometry" />
        </mxCell>
        <mxCell id="dAv51BVtBpRJ1IaC2P38-26" value="" style="endArrow=none;html=1;rounded=0;" edge="1" parent="1">
          <mxGeometry width="50" height="50" relative="1" as="geometry">
            <mxPoint x="360" y="1063" as="sourcePoint" />
            <mxPoint x="430" y="1063" as="targetPoint" />
          </mxGeometry>
        </mxCell>
        <mxCell id="dAv51BVtBpRJ1IaC2P38-28" value="Changes &lt;br&gt;status" style="rhombus;whiteSpace=wrap;html=1;" vertex="1" parent="1">
          <mxGeometry x="250" y="1035" width="110" height="57" as="geometry" />
        </mxCell>
        <mxCell id="dAv51BVtBpRJ1IaC2P38-31" value="" style="endArrow=classic;html=1;rounded=0;exitX=0;exitY=0.5;exitDx=0;exitDy=0;entryX=1;entryY=0.5;entryDx=0;entryDy=0;" edge="1" parent="1" source="dAv51BVtBpRJ1IaC2P38-28" target="dAv51BVtBpRJ1IaC2P38-32">
          <mxGeometry width="50" height="50" relative="1" as="geometry">
            <mxPoint x="130" y="1080" as="sourcePoint" />
            <mxPoint x="180" y="1064" as="targetPoint" />
          </mxGeometry>
        </mxCell>
        <mxCell id="dAv51BVtBpRJ1IaC2P38-35" value="" style="edgeStyle=orthogonalEdgeStyle;rounded=0;orthogonalLoop=1;jettySize=auto;html=1;" edge="1" parent="1" source="dAv51BVtBpRJ1IaC2P38-32" target="dAv51BVtBpRJ1IaC2P38-34">
          <mxGeometry relative="1" as="geometry" />
        </mxCell>
        <mxCell id="dAv51BVtBpRJ1IaC2P38-32" value="Accountant" style="rounded=0;whiteSpace=wrap;html=1;" vertex="1" parent="1">
          <mxGeometry x="59" y="1040" width="100" height="45" as="geometry" />
        </mxCell>
        <mxCell id="dAv51BVtBpRJ1IaC2P38-33" value="Ongoing" style="text;html=1;strokeColor=none;fillColor=none;align=center;verticalAlign=middle;whiteSpace=wrap;rounded=0;" vertex="1" parent="1">
          <mxGeometry x="160" y="1037" width="90" height="30" as="geometry" />
        </mxCell>
        <mxCell id="dAv51BVtBpRJ1IaC2P38-34" value="starts" style="rhombus;whiteSpace=wrap;html=1;rounded=0;" vertex="1" parent="1">
          <mxGeometry x="61.75" y="933" width="94.5" height="58" as="geometry" />
        </mxCell>
        <mxCell id="dAv51BVtBpRJ1IaC2P38-36" value="" style="edgeStyle=orthogonalEdgeStyle;rounded=0;orthogonalLoop=1;jettySize=auto;html=1;" edge="1" parent="1">
          <mxGeometry relative="1" as="geometry">
            <mxPoint x="109.5" y="931.53" as="sourcePoint" />
            <mxPoint x="109.5" y="882.53" as="targetPoint" />
          </mxGeometry>
        </mxCell>
        <mxCell id="dAv51BVtBpRJ1IaC2P38-37" value="Functionalities" style="rounded=0;whiteSpace=wrap;html=1;" vertex="1" parent="1">
          <mxGeometry x="61.75" y="839" width="100" height="45" as="geometry" />
        </mxCell>
        <mxCell id="dAv51BVtBpRJ1IaC2P38-38" value="ME can download,&lt;br&gt;export, print or share the quotation" style="ellipse;whiteSpace=wrap;html=1;" vertex="1" parent="1">
          <mxGeometry x="660" y="803" width="150" height="75" as="geometry" />
        </mxCell>
        <mxCell id="dAv51BVtBpRJ1IaC2P38-39" value="" style="endArrow=classic;html=1;rounded=0;exitX=1;exitY=0.5;exitDx=0;exitDy=0;" edge="1" parent="1">
          <mxGeometry width="50" height="50" relative="1" as="geometry">
            <mxPoint x="630.5" y="839.5" as="sourcePoint" />
            <mxPoint x="660" y="840" as="targetPoint" />
          </mxGeometry>
        </mxCell>
        <mxCell id="dAv51BVtBpRJ1IaC2P38-41" value="1" style="text;html=1;strokeColor=none;fillColor=none;align=center;verticalAlign=middle;whiteSpace=wrap;rounded=0;" vertex="1" parent="1">
          <mxGeometry x="390" y="1027" width="40" height="40" as="geometry" />
        </mxCell>
        <mxCell id="dAv51BVtBpRJ1IaC2P38-45" value="1" style="text;html=1;strokeColor=none;fillColor=none;align=center;verticalAlign=middle;whiteSpace=wrap;rounded=0;" vertex="1" parent="1">
          <mxGeometry x="116.25" y="62" width="40" height="40" as="geometry" />
        </mxCell>
        <mxCell id="dAv51BVtBpRJ1IaC2P38-46" value="M" style="text;html=1;strokeColor=none;fillColor=none;align=center;verticalAlign=middle;whiteSpace=wrap;rounded=0;" vertex="1" parent="1">
          <mxGeometry x="488" y="65" width="40" height="38" as="geometry" />
        </mxCell>
        <mxCell id="dAv51BVtBpRJ1IaC2P38-47" value="M" style="text;html=1;strokeColor=none;fillColor=none;align=center;verticalAlign=middle;whiteSpace=wrap;rounded=0;" vertex="1" parent="1">
          <mxGeometry x="486" y="288" width="40" height="38" as="geometry" />
        </mxCell>
        <mxCell id="dAv51BVtBpRJ1IaC2P38-48" value="M" style="text;html=1;strokeColor=none;fillColor=none;align=center;verticalAlign=middle;whiteSpace=wrap;rounded=0;" vertex="1" parent="1">
          <mxGeometry x="486" y="606" width="40" height="38" as="geometry" />
        </mxCell>
        <mxCell id="dAv51BVtBpRJ1IaC2P38-49" value="M" style="text;html=1;strokeColor=none;fillColor=none;align=center;verticalAlign=middle;whiteSpace=wrap;rounded=0;" vertex="1" parent="1">
          <mxGeometry x="222" y="1028" width="40" height="38" as="geometry" />
        </mxCell>
        <mxCell id="dAv51BVtBpRJ1IaC2P38-50" value="1" style="text;html=1;strokeColor=none;fillColor=none;align=center;verticalAlign=middle;whiteSpace=wrap;rounded=0;" vertex="1" parent="1">
          <mxGeometry x="537.5" y="662.5" width="40" height="40" as="geometry" />
        </mxCell>
        <mxCell id="dAv51BVtBpRJ1IaC2P38-51" value="M" style="text;html=1;strokeColor=none;fillColor=none;align=center;verticalAlign=middle;whiteSpace=wrap;rounded=0;" vertex="1" parent="1">
          <mxGeometry x="360" y="288" width="40" height="38" as="geometry" />
        </mxCell>
        <mxCell id="dAv51BVtBpRJ1IaC2P38-52" value="Clients" style="text;html=1;strokeColor=none;fillColor=none;align=center;verticalAlign=middle;whiteSpace=wrap;rounded=0;" vertex="1" parent="1">
          <mxGeometry x="416.5" y="287" width="40" height="38" as="geometry" />
        </mxCell>
        <mxCell id="dAv51BVtBpRJ1IaC2P38-53" value="1" style="text;html=1;strokeColor=none;fillColor=none;align=center;verticalAlign=middle;whiteSpace=wrap;rounded=0;" vertex="1" parent="1">
          <mxGeometry x="100" y="279" width="40" height="40" as="geometry" />
        </mxCell>
        <mxCell id="dAv51BVtBpRJ1IaC2P38-54" value="1" style="text;html=1;strokeColor=none;fillColor=none;align=center;verticalAlign=middle;whiteSpace=wrap;rounded=0;" vertex="1" parent="1">
          <mxGeometry x="100" y="600" width="40" height="40" as="geometry" />
        </mxCell>
        <mxCell id="dAv51BVtBpRJ1IaC2P38-55" value="1" style="text;html=1;strokeColor=none;fillColor=none;align=center;verticalAlign=middle;whiteSpace=wrap;rounded=0;" vertex="1" parent="1">
          <mxGeometry x="100" y="438" width="40" height="40" as="geometry" />
        </mxCell>
        <mxCell id="dAv51BVtBpRJ1IaC2P38-56" value="1" style="text;html=1;strokeColor=none;fillColor=none;align=center;verticalAlign=middle;whiteSpace=wrap;rounded=0;" vertex="1" parent="1">
          <mxGeometry x="545" y="784" width="40" height="40" as="geometry" />
        </mxCell>
        <mxCell id="dAv51BVtBpRJ1IaC2P38-57" value="M" style="text;html=1;strokeColor=none;fillColor=none;align=center;verticalAlign=middle;whiteSpace=wrap;rounded=0;" vertex="1" parent="1">
          <mxGeometry x="486" y="440" width="40" height="38" as="geometry" />
        </mxCell>
      </root>
    </mxGraphModel>
  </diagram>
</mxfile>
